<?xml version="1.0" standalone="no"?>
<!DOCTYPE svg PUBLIC "-//W3C//DTD SVG 20010904//EN"
 "http://www.w3.org/TR/2001/REC-SVG-20010904/DTD/svg10.dtd">
<svg version="1.0" xmlns="http://www.w3.org/2000/svg"
 width="86.000000pt" height="86.000000pt" viewBox="0 0 86.000000 86.000000"
 preserveAspectRatio="xMidYMid meet">
<metadata>
Created by potrace 1.11, written by Peter Selinger 2001-2013
</metadata>
<g transform="translate(0.000000,86.000000) scale(0.100000,-0.100000)"
fill="#000000" stroke="none">
<path d="M343 775 c-17 -7 -33 -11 -36 -9 -2 2 -10 -2 -17 -11 -7 -8 -18 -15
-25 -15 -21 0 -112 -99 -134 -144 -11 -25 -34 -53 -51 -62 -33 -20 -60 -68
-60 -108 0 -43 31 -94 67 -111 20 -10 41 -31 53 -54 28 -57 91 -115 157 -147
49 -24 70 -28 138 -28 86 1 138 10 143 25 2 5 9 9 16 9 39 0 163 135 170 184
1 9 21 33 45 55 36 33 42 45 40 73 -3 31 -38 78 -59 78 -4 0 -13 14 -19 30 -5
17 -8 30 -5 30 3 0 -9 21 -27 48 -76 112 -167 165 -289 168 -46 2 -87 -3 -107
-11z"/>
</g>
</svg>
